<svg width="17" height="17" viewBox="0 0 17 17" fill="none" xmlns="http://www.w3.org/2000/svg">
  <path
    d="M8.63281 16.8281C7.54427 16.8281 6.51823 16.6198 5.55469 16.2031C4.59635 15.7865 3.75 15.2109 3.01562 14.4766C2.28125 13.7422 1.70573 12.8958 1.28906 11.9375C0.872396 10.974 0.664062 9.94792 0.664062 8.85938C0.664062 7.77083 0.872396 6.7474 1.28906 5.78906C1.70573 4.82552 2.27865 3.97656 3.00781 3.24219C3.74219 2.50781 4.58854 1.93229 5.54688 1.51562C6.51042 1.09896 7.53646 0.890625 8.625 0.890625C9.71354 0.890625 10.7396 1.09896 11.7031 1.51562C12.6667 1.93229 13.5156 2.50781 14.25 3.24219C14.9844 3.97656 15.5599 4.82552 15.9766 5.78906C16.3932 6.7474 16.6016 7.77083 16.6016 8.85938C16.6016 9.94792 16.3932 10.974 15.9766 11.9375C15.5599 12.8958 14.9844 13.7422 14.25 14.4766C13.5156 15.2109 12.6667 15.7865 11.7031 16.2031C10.7448 16.6198 9.72135 16.8281 8.63281 16.8281ZM6.00781 12.1406C6.19531 12.1406 6.35417 12.0781 6.48438 11.9531L8.64062 9.78125L10.8047 11.9531C10.9245 12.0781 11.0781 12.1406 11.2656 12.1406C11.4479 12.1406 11.6016 12.0781 11.7266 11.9531C11.8516 11.8229 11.9141 11.6693 11.9141 11.4922C11.9141 11.2995 11.8516 11.1458 11.7266 11.0312L9.55469 8.86719L11.7344 6.69531C11.8594 6.5651 11.9219 6.41146 11.9219 6.23438C11.9219 6.05729 11.8594 5.90625 11.7344 5.78125C11.6094 5.65625 11.4583 5.59375 11.2812 5.59375C11.1094 5.59375 10.9609 5.65625 10.8359 5.78125L8.64062 7.96094L6.46094 5.78906C6.33073 5.66927 6.17969 5.60938 6.00781 5.60938C5.83073 5.60938 5.67969 5.67188 5.55469 5.79688C5.42969 5.91667 5.36719 6.06771 5.36719 6.25C5.36719 6.42188 5.42969 6.57292 5.55469 6.70312L7.72656 8.86719L5.55469 11.0391C5.42969 11.1641 5.36719 11.3151 5.36719 11.4922C5.36719 11.6693 5.42969 11.8229 5.55469 11.9531C5.67969 12.0781 5.83073 12.1406 6.00781 12.1406Z"
    fill="#C4C4C4" />
</svg>