<svg width="17" height="16" viewBox="0 0 17 16" fill="none" xmlns="http://www.w3.org/2000/svg">
  <path
    d="M0.796875 6.4375C0.796875 5.5625 0.960938 4.74219 1.28906 3.97656C1.6224 3.20573 2.08073 2.52865 2.66406 1.94531C3.2474 1.35677 3.92188 0.898438 4.6875 0.570312C5.45833 0.242188 6.28125 0.078125 7.15625 0.078125C8.03646 0.078125 8.85938 0.242188 9.625 0.570312C10.3958 0.898438 11.0729 1.35677 11.6562 1.94531C12.2396 2.52865 12.6953 3.20573 13.0234 3.97656C13.3568 4.74219 13.5234 5.5625 13.5234 6.4375C13.5234 7.125 13.4167 7.77865 13.2031 8.39844C12.9948 9.01823 12.7057 9.58333 12.3359 10.0938L15.8984 13.6719C16.0078 13.776 16.0885 13.8984 16.1406 14.0391C16.1979 14.1797 16.2266 14.3281 16.2266 14.4844C16.2266 14.7031 16.1771 14.901 16.0781 15.0781C15.9792 15.2552 15.8438 15.3932 15.6719 15.4922C15.5 15.5964 15.3021 15.6484 15.0781 15.6484C14.9219 15.6484 14.7708 15.6198 14.625 15.5625C14.4844 15.5104 14.3568 15.4271 14.2422 15.3125L10.6562 11.7266C10.1562 12.0599 9.60938 12.3229 9.01562 12.5156C8.42708 12.7031 7.80729 12.7969 7.15625 12.7969C6.28125 12.7969 5.45833 12.6328 4.6875 12.3047C3.92188 11.9766 3.2474 11.5208 2.66406 10.9375C2.08073 10.3542 1.6224 9.67969 1.28906 8.91406C0.960938 8.14323 0.796875 7.31771 0.796875 6.4375ZM2.46094 6.4375C2.46094 7.08854 2.58073 7.69792 2.82031 8.26562C3.0651 8.83333 3.40365 9.33333 3.83594 9.76562C4.26823 10.1927 4.76823 10.5286 5.33594 10.7734C5.90365 11.0182 6.51042 11.1406 7.15625 11.1406C7.80729 11.1406 8.41667 11.0182 8.98438 10.7734C9.55208 10.5286 10.0495 10.1927 10.4766 9.76562C10.9089 9.33333 11.2474 8.83333 11.4922 8.26562C11.737 7.69792 11.8594 7.08854 11.8594 6.4375C11.8594 5.79167 11.737 5.1849 11.4922 4.61719C11.2474 4.04948 10.9089 3.54948 10.4766 3.11719C10.0495 2.6849 9.55208 2.34896 8.98438 2.10938C8.41667 1.86458 7.80729 1.74219 7.15625 1.74219C6.51042 1.74219 5.90365 1.86458 5.33594 2.10938C4.76823 2.34896 4.26823 2.6849 3.83594 3.11719C3.40365 3.54948 3.0651 4.04948 2.82031 4.61719C2.58073 5.1849 2.46094 5.79167 2.46094 6.4375Z"
    fill="#C4C4C4" />
</svg>